<mxfile host="app.diagrams.net" modified="2021-04-20T17:13:10.941Z" agent="5.0 (Windows NT 10.0; Win64; x64) AppleWebKit/537.36 (KHTML, like Gecko) Chrome/87.0.4280.141 Safari/537.36 OPR/73.0.3856.438" etag="lTrIpqAEMJYYM-LGBTps" version="14.6.3" type="github">
  <diagram id="fVh9d-zEPPCme2-Lh_E0" name="Page-1">
    <mxGraphModel dx="1381" dy="833" grid="1" gridSize="10" guides="1" tooltips="1" connect="1" arrows="1" fold="1" page="1" pageScale="1" pageWidth="827" pageHeight="1169" math="0" shadow="0">
      <root>
        <mxCell id="0" />
        <mxCell id="1" parent="0" />
        <mxCell id="Slb4RAas0IMfEQ0BbMTu-9" style="edgeStyle=orthogonalEdgeStyle;rounded=0;orthogonalLoop=1;jettySize=auto;html=1;" edge="1" parent="1" source="Slb4RAas0IMfEQ0BbMTu-7" target="Slb4RAas0IMfEQ0BbMTu-8">
          <mxGeometry relative="1" as="geometry" />
        </mxCell>
        <mxCell id="Slb4RAas0IMfEQ0BbMTu-7" value="start" style="ellipse;whiteSpace=wrap;html=1;shadow=0;glass=0;fillColor=#ffffff;gradientColor=none;" vertex="1" parent="1">
          <mxGeometry x="350" y="40" width="120" height="80" as="geometry" />
        </mxCell>
        <mxCell id="Slb4RAas0IMfEQ0BbMTu-11" style="edgeStyle=orthogonalEdgeStyle;rounded=0;orthogonalLoop=1;jettySize=auto;html=1;" edge="1" parent="1" source="Slb4RAas0IMfEQ0BbMTu-8" target="Slb4RAas0IMfEQ0BbMTu-10">
          <mxGeometry relative="1" as="geometry" />
        </mxCell>
        <mxCell id="Slb4RAas0IMfEQ0BbMTu-8" value="please input&amp;nbsp;&lt;br&gt;a number" style="shape=parallelogram;perimeter=parallelogramPerimeter;whiteSpace=wrap;html=1;fixedSize=1;shadow=0;glass=0;fillColor=#ffffff;gradientColor=none;" vertex="1" parent="1">
          <mxGeometry x="350" y="160" width="120" height="60" as="geometry" />
        </mxCell>
        <mxCell id="Slb4RAas0IMfEQ0BbMTu-13" style="edgeStyle=orthogonalEdgeStyle;rounded=0;orthogonalLoop=1;jettySize=auto;html=1;" edge="1" parent="1" source="Slb4RAas0IMfEQ0BbMTu-10" target="Slb4RAas0IMfEQ0BbMTu-12">
          <mxGeometry relative="1" as="geometry" />
        </mxCell>
        <mxCell id="Slb4RAas0IMfEQ0BbMTu-10" value="please input a&amp;nbsp;&lt;br&gt;second number" style="shape=parallelogram;perimeter=parallelogramPerimeter;whiteSpace=wrap;html=1;fixedSize=1;shadow=0;glass=0;fillColor=#ffffff;gradientColor=none;" vertex="1" parent="1">
          <mxGeometry x="350" y="260" width="120" height="60" as="geometry" />
        </mxCell>
        <mxCell id="Slb4RAas0IMfEQ0BbMTu-15" style="edgeStyle=orthogonalEdgeStyle;rounded=0;orthogonalLoop=1;jettySize=auto;html=1;entryX=0.5;entryY=0;entryDx=0;entryDy=0;" edge="1" parent="1" source="Slb4RAas0IMfEQ0BbMTu-12" target="Slb4RAas0IMfEQ0BbMTu-14">
          <mxGeometry relative="1" as="geometry" />
        </mxCell>
        <mxCell id="Slb4RAas0IMfEQ0BbMTu-12" value="please input a&amp;nbsp;&lt;br&gt;third number" style="shape=parallelogram;perimeter=parallelogramPerimeter;whiteSpace=wrap;html=1;fixedSize=1;shadow=0;glass=0;fillColor=#ffffff;gradientColor=none;" vertex="1" parent="1">
          <mxGeometry x="350" y="360" width="120" height="60" as="geometry" />
        </mxCell>
        <mxCell id="Slb4RAas0IMfEQ0BbMTu-17" value="nie" style="edgeStyle=orthogonalEdgeStyle;rounded=0;orthogonalLoop=1;jettySize=auto;html=1;" edge="1" parent="1" source="Slb4RAas0IMfEQ0BbMTu-14" target="Slb4RAas0IMfEQ0BbMTu-16">
          <mxGeometry relative="1" as="geometry" />
        </mxCell>
        <mxCell id="Slb4RAas0IMfEQ0BbMTu-19" value="tak" style="edgeStyle=orthogonalEdgeStyle;rounded=0;orthogonalLoop=1;jettySize=auto;html=1;" edge="1" parent="1" source="Slb4RAas0IMfEQ0BbMTu-14" target="Slb4RAas0IMfEQ0BbMTu-18">
          <mxGeometry relative="1" as="geometry" />
        </mxCell>
        <mxCell id="Slb4RAas0IMfEQ0BbMTu-14" value="number1 + number2&lt;br&gt;&amp;gt; number3" style="rounded=0;whiteSpace=wrap;html=1;shadow=0;glass=0;fillColor=#ffffff;gradientColor=none;" vertex="1" parent="1">
          <mxGeometry x="350" y="460" width="120" height="60" as="geometry" />
        </mxCell>
        <mxCell id="Slb4RAas0IMfEQ0BbMTu-16" value="to nie jest trójkąt" style="shape=parallelogram;perimeter=parallelogramPerimeter;whiteSpace=wrap;html=1;fixedSize=1;shadow=0;glass=0;fillColor=#ffffff;gradientColor=none;" vertex="1" parent="1">
          <mxGeometry x="510" y="460" width="120" height="60" as="geometry" />
        </mxCell>
        <mxCell id="Slb4RAas0IMfEQ0BbMTu-23" value="nie" style="edgeStyle=orthogonalEdgeStyle;rounded=0;orthogonalLoop=1;jettySize=auto;html=1;" edge="1" parent="1" source="Slb4RAas0IMfEQ0BbMTu-18" target="Slb4RAas0IMfEQ0BbMTu-22">
          <mxGeometry relative="1" as="geometry" />
        </mxCell>
        <mxCell id="Slb4RAas0IMfEQ0BbMTu-25" value="tak" style="edgeStyle=orthogonalEdgeStyle;rounded=0;orthogonalLoop=1;jettySize=auto;html=1;" edge="1" parent="1" source="Slb4RAas0IMfEQ0BbMTu-18" target="Slb4RAas0IMfEQ0BbMTu-24">
          <mxGeometry relative="1" as="geometry" />
        </mxCell>
        <mxCell id="Slb4RAas0IMfEQ0BbMTu-18" value="number2 + number3&lt;br&gt;&amp;gt; number1" style="rounded=0;whiteSpace=wrap;html=1;shadow=0;glass=0;fillColor=#ffffff;gradientColor=none;" vertex="1" parent="1">
          <mxGeometry x="350" y="560" width="120" height="60" as="geometry" />
        </mxCell>
        <mxCell id="Slb4RAas0IMfEQ0BbMTu-22" value="&#xa;&#xa;&lt;span style=&quot;color: rgb(0, 0, 0); font-family: helvetica; font-size: 12px; font-style: normal; font-weight: 400; letter-spacing: normal; text-align: center; text-indent: 0px; text-transform: none; word-spacing: 0px; background-color: rgb(248, 249, 250); display: inline; float: none;&quot;&gt;to nie jest trójkąt&lt;/span&gt;&#xa;&#xa;" style="shape=parallelogram;perimeter=parallelogramPerimeter;whiteSpace=wrap;html=1;fixedSize=1;shadow=0;glass=0;fillColor=#ffffff;gradientColor=none;" vertex="1" parent="1">
          <mxGeometry x="510" y="560" width="120" height="60" as="geometry" />
        </mxCell>
        <mxCell id="Slb4RAas0IMfEQ0BbMTu-27" value="nie" style="edgeStyle=orthogonalEdgeStyle;rounded=0;orthogonalLoop=1;jettySize=auto;html=1;" edge="1" parent="1" source="Slb4RAas0IMfEQ0BbMTu-24" target="Slb4RAas0IMfEQ0BbMTu-26">
          <mxGeometry relative="1" as="geometry" />
        </mxCell>
        <mxCell id="Slb4RAas0IMfEQ0BbMTu-29" value="tak" style="edgeStyle=orthogonalEdgeStyle;rounded=0;orthogonalLoop=1;jettySize=auto;html=1;" edge="1" parent="1" source="Slb4RAas0IMfEQ0BbMTu-24" target="Slb4RAas0IMfEQ0BbMTu-28">
          <mxGeometry relative="1" as="geometry" />
        </mxCell>
        <mxCell id="Slb4RAas0IMfEQ0BbMTu-24" value="number1 + number3&lt;br&gt;&amp;gt; number2" style="rounded=0;whiteSpace=wrap;html=1;shadow=0;glass=0;fillColor=#ffffff;gradientColor=none;" vertex="1" parent="1">
          <mxGeometry x="350" y="660" width="120" height="60" as="geometry" />
        </mxCell>
        <mxCell id="Slb4RAas0IMfEQ0BbMTu-26" value="&#xa;&#xa;&lt;span style=&quot;color: rgb(0, 0, 0); font-family: helvetica; font-size: 12px; font-style: normal; font-weight: 400; letter-spacing: normal; text-align: center; text-indent: 0px; text-transform: none; word-spacing: 0px; background-color: rgb(248, 249, 250); display: inline; float: none;&quot;&gt;to nie jest trójkąt&lt;/span&gt;&#xa;&#xa;" style="shape=parallelogram;perimeter=parallelogramPerimeter;whiteSpace=wrap;html=1;fixedSize=1;shadow=0;glass=0;fillColor=#ffffff;gradientColor=none;" vertex="1" parent="1">
          <mxGeometry x="510" y="660" width="120" height="60" as="geometry" />
        </mxCell>
        <mxCell id="Slb4RAas0IMfEQ0BbMTu-31" style="edgeStyle=orthogonalEdgeStyle;rounded=0;orthogonalLoop=1;jettySize=auto;html=1;" edge="1" parent="1" source="Slb4RAas0IMfEQ0BbMTu-28" target="Slb4RAas0IMfEQ0BbMTu-30">
          <mxGeometry relative="1" as="geometry" />
        </mxCell>
        <mxCell id="Slb4RAas0IMfEQ0BbMTu-28" value="to jest trójkąt" style="shape=parallelogram;perimeter=parallelogramPerimeter;whiteSpace=wrap;html=1;fixedSize=1;shadow=0;glass=0;fillColor=#ffffff;gradientColor=none;" vertex="1" parent="1">
          <mxGeometry x="350" y="760" width="120" height="60" as="geometry" />
        </mxCell>
        <mxCell id="Slb4RAas0IMfEQ0BbMTu-30" value="end" style="ellipse;whiteSpace=wrap;html=1;shadow=0;glass=0;fillColor=#ffffff;gradientColor=none;" vertex="1" parent="1">
          <mxGeometry x="350" y="860" width="120" height="80" as="geometry" />
        </mxCell>
      </root>
    </mxGraphModel>
  </diagram>
</mxfile>
